<?xml version="1.0" standalone="no"?>
<!DOCTYPE svg PUBLIC "-//W3C//DTD SVG 20010904//EN"
 "http://www.w3.org/TR/2001/REC-SVG-20010904/DTD/svg10.dtd">
<svg version="1.0" xmlns="http://www.w3.org/2000/svg"
 width="600.000000pt" height="370.000000pt" viewBox="0 0 600.000000 370.000000"
 preserveAspectRatio="xMidYMid meet">

<g transform="translate(0.000000,370.000000) scale(0.100000,-0.100000)"
fill="#000000" stroke="none">
<path d="M770 2534 c-121 -22 -213 -68 -290 -144 -102 -102 -150 -218 -150
-362 0 -223 137 -412 350 -484 75 -26 235 -26 308 0 84 29 142 65 208 131 99
98 146 214 145 358 0 221 -138 409 -350 479 -56 19 -174 30 -221 22z m191 -58
c81 -25 147 -65 205 -123 288 -293 79 -788 -331 -786 -317 1 -533 298 -440
605 41 139 162 257 310 303 54 18 200 18 256 1z"/>
<path d="M853 2420 c-18 -44 -27 -48 -55 -23 -17 15 -20 15 -28 3 -6 -8 -10
-22 -10 -30 -1 -8 -32 -30 -71 -48 -52 -25 -74 -42 -86 -65 -8 -18 -32 -44
-52 -58 -21 -14 -48 -43 -60 -64 -19 -32 -19 -36 -4 -24 10 8 23 19 28 25 6 7
30 26 54 43 25 17 52 44 62 60 31 51 190 128 203 98 6 -15 24 8 32 43 12 44
24 53 47 33 28 -25 59 -98 57 -136 -3 -50 -2 -53 27 -66 23 -11 29 -10 40 5
12 17 14 17 41 -2 15 -11 34 -34 42 -52 8 -17 19 -32 24 -32 16 0 -2 92 -24
122 l-23 31 28 -7 c25 -7 27 -6 15 9 -7 9 -34 28 -59 42 -25 14 -64 43 -86 63
-90 83 -119 89 -142 30z"/>
<path d="M888 2335 c-5 -22 25 -65 45 -65 13 0 7 45 -9 68 -20 29 -31 28 -36
-3z"/>
<path d="M723 2297 c-18 -12 -32 -25 -33 -30 0 -10 50 2 79 20 19 12 21 17 10
24 -18 11 -18 11 -56 -14z"/>
<path d="M794 2274 c-26 -29 -40 -35 -76 -37 l-45 -2 0 -43 c-1 -39 0 -42 15
-30 29 23 62 39 62 30 0 -16 -37 -52 -54 -52 -9 0 -16 -4 -16 -10 0 -5 15 -10
33 -10 27 0 37 6 47 28 8 15 21 35 28 44 8 10 12 24 9 31 -3 10 7 21 29 33 20
11 33 25 32 34 -5 27 -32 20 -64 -16z m-54 -58 c0 -3 -4 -8 -10 -11 -5 -3 -10
-1 -10 4 0 6 5 11 10 11 6 0 10 -2 10 -4z"/>
<path d="M912 2189 c0 -30 -7 -70 -16 -91 -25 -58 -23 -93 9 -156 17 -31 31
-59 33 -62 2 -2 7 2 12 10 14 22 12 76 -5 117 -21 50 -19 56 11 36 27 -17 27
-17 19 7 -4 14 -9 37 -10 53 -1 15 -2 40 -3 56 -1 17 -13 42 -26 57 l-23 28
-1 -55z"/>
<path d="M827 2212 c-10 -10 -17 -35 -17 -55 0 -30 -4 -37 -19 -37 -11 0 -32
-11 -47 -25 -35 -32 -48 -32 -74 5 -14 20 -26 27 -37 23 -11 -4 -13 -8 -5 -11
7 -2 12 -11 12 -21 0 -34 29 -61 67 -61 20 0 45 -7 55 -17 25 -22 34 -9 14 21
-20 31 -20 36 -2 36 23 0 38 -27 45 -82 8 -52 8 -52 19 -25 15 36 15 79 1 111
-16 33 -3 93 26 121 18 19 20 25 8 29 -23 9 -29 7 -46 -12z"/>
<path d="M1205 2088 c0 -106 -9 -177 -21 -165 -3 3 -11 41 -18 84 -12 73 -14
76 -25 50 -6 -16 -11 -63 -11 -105 0 -100 -14 -146 -57 -190 -23 -24 -32 -30
-27 -17 4 11 9 48 12 82 3 47 7 60 18 56 10 -4 14 4 16 28 2 48 2 49 -7 98 -6
38 -5 43 9 38 40 -16 0 90 -43 113 -24 13 -26 5 -6 -30 20 -36 18 -41 -11 -34
l-26 7 21 -41 c21 -42 39 -122 27 -122 -4 0 -16 4 -26 10 -17 9 -18 6 -13 -65
4 -53 3 -75 -6 -75 -6 0 -11 6 -11 13 0 6 -10 0 -21 -16 -12 -15 -30 -32 -40
-38 -18 -9 -19 -7 -13 15 10 43 -3 73 -38 85 -42 15 -74 -7 -107 -72 -24 -49
-43 -57 -82 -37 -36 20 -23 47 36 74 59 27 82 58 71 99 -9 39 -57 62 -116 58
-9 -1 -38 -16 -66 -34 -56 -37 -80 -36 -103 6 -10 18 -10 30 -2 45 6 11 11 30
11 41 0 19 -6 21 -45 19 -39 -1 -45 -4 -45 -23 0 -12 9 -30 21 -41 12 -10 30
-36 40 -56 10 -20 29 -40 41 -44 13 -4 34 -15 47 -25 34 -27 41 -24 41 16 0
28 5 37 30 50 36 18 54 19 69 2 7 -9 7 -17 0 -24 -5 -5 -18 -25 -27 -44 -14
-28 -22 -33 -45 -31 -32 3 -34 -7 -8 -65 16 -34 26 -44 58 -52 80 -21 87 -19
93 19 12 71 58 117 87 87 18 -17 10 -69 -13 -88 -36 -30 2 -39 61 -15 33 14
35 14 35 -4 0 -10 -10 -35 -21 -55 -12 -20 -20 -38 -17 -40 2 -3 24 3 49 13
120 47 208 140 244 258 21 67 21 182 0 244 -9 27 -18 50 -19 50 -1 0 -1 -51
-1 -112z m-709 -53 c-1 -28 -14 -33 -23 -9 -4 12 9 32 23 34 1 0 1 -11 0 -25z
m114 -131 c0 -8 -5 -12 -10 -9 -6 4 -8 11 -5 16 9 14 15 11 15 -7z m160 -2 c0
-5 -9 -17 -20 -27 -23 -21 -26 -14 -8 15 13 20 28 27 28 12z"/>
<path d="M570 2085 c-19 -23 -8 -26 19 -4 16 13 18 19 8 19 -8 0 -20 -7 -27
-15z"/>
<path d="M575 2045 c-35 -34 -31 -55 3 -22 15 15 33 27 40 27 7 0 12 5 12 10
0 18 -31 10 -55 -15z"/>
<path d="M581 2004 c-33 -41 -26 -60 10 -28 10 9 29 17 41 18 32 1 29 30 -3
34 -19 2 -33 -4 -48 -24z"/>
<path d="M3417 2383 c-4 -3 -7 -147 -7 -319 0 -362 -13 -326 121 -345 153 -21
287 16 335 93 73 115 43 285 -60 340 -39 21 -135 36 -173 27 -20 -4 -41 -6
-45 -3 -4 3 -8 52 -8 110 l0 104 -78 0 c-43 0 -82 -3 -85 -7z m286 -331 c43
-38 44 -153 0 -196 -27 -27 -72 -41 -103 -31 -19 6 -20 15 -20 121 0 110 1
115 23 124 28 11 76 3 100 -18z"/>
<path d="M5007 2384 c-4 -4 -7 -155 -7 -336 l0 -328 85 0 84 0 3 110 3 111 80
-111 80 -110 93 0 c72 0 91 3 86 13 -6 9 -119 162 -165 223 -6 7 22 49 71 110
44 54 79 102 80 107 0 4 -42 7 -92 7 l-93 -1 -70 -94 -70 -94 -5 197 -5 197
-75 3 c-42 1 -79 0 -83 -4z"/>
<path d="M1584 2325 c-5 -13 -84 -570 -84 -590 0 -12 16 -15 78 -15 l78 0 12
88 c6 48 17 138 24 200 6 61 14 112 18 112 3 0 37 -90 75 -200 l70 -201 55 3
54 3 70 199 c50 142 72 193 77 180 4 -10 15 -86 24 -169 9 -82 18 -165 22
-182 l5 -33 79 0 c44 0 79 2 79 5 0 11 -80 572 -85 590 -4 18 -12 20 -101 19
l-98 -1 -61 -176 c-33 -97 -63 -178 -66 -181 -2 -3 -32 76 -65 175 l-61 181
-98 1 c-57 1 -99 -2 -101 -8z"/>
<path d="M2465 2180 c-22 -5 -52 -13 -67 -19 l-27 -10 19 -43 c13 -30 25 -42
37 -41 10 1 44 7 76 12 88 15 147 -1 147 -39 0 -14 -16 -19 -88 -29 -163 -22
-232 -75 -218 -164 10 -61 23 -77 84 -105 50 -23 70 -26 167 -26 61 0 134 6
163 13 l54 13 -4 173 c-3 196 -9 212 -84 250 -43 22 -187 31 -259 15z m185
-304 c0 -63 -12 -72 -83 -61 -51 9 -67 20 -67 50 0 30 23 47 73 56 80 13 77
15 77 -45z"/>
<path d="M4031 2175 c-35 -8 -66 -16 -68 -19 -3 -2 5 -25 16 -51 17 -38 24
-45 40 -40 44 14 135 24 164 18 40 -7 57 -20 57 -43 0 -14 -15 -19 -82 -28
-120 -16 -159 -30 -195 -69 -38 -40 -43 -87 -15 -142 41 -82 211 -111 403 -70
l51 11 -4 173 c-3 196 -9 212 -84 250 -50 25 -192 30 -283 10z m209 -299 c0
-63 -12 -72 -83 -61 -51 9 -67 20 -67 50 0 30 23 47 73 56 80 13 77 15 77 -45z"/>
<path d="M4523 2173 l-63 -14 0 -220 0 -219 85 0 85 0 0 174 0 174 31 6 c49
10 58 8 84 -19 24 -24 25 -28 25 -180 l0 -155 86 0 86 0 -4 184 c-4 215 -8
226 -99 263 -44 18 -73 22 -154 22 -55 -1 -128 -7 -162 -16z"/>
<path d="M2847 2078 c25 -57 69 -157 99 -222 30 -65 54 -125 54 -133 0 -8 -16
-48 -35 -90 -19 -42 -35 -80 -35 -84 0 -5 38 -9 85 -9 82 0 85 1 99 28 7 15
71 155 141 312 70 157 129 288 132 293 2 4 -39 7 -91 7 -89 0 -95 -1 -102 -22
-3 -13 -27 -84 -52 -158 -53 -156 -42 -161 -114 53 l-43 127 -92 0 -92 0 46
-102z"/>
</g>
</svg>
